<svg width="70" height="70" viewBox="0 0 70 70" fill="none" xmlns="http://www.w3.org/2000/svg">
<path fill-rule="evenodd" clip-rule="evenodd" d="M9.92157 9.92157C8.75 11.0931 8.75 12.9788 8.75 16.75V53.25C8.75 57.0212 8.75 58.9069 9.92157 60.0784C11.0931 61.25 12.9788 61.25 16.75 61.25H53.25C57.0212 61.25 58.9069 61.25 60.0784 60.0784C61.25 58.9069 61.25 57.0212 61.25 53.25V16.75C61.25 12.9788 61.25 11.0931 60.0784 9.92157C58.9069 8.75 57.0212 8.75 53.25 8.75H16.75C12.9788 8.75 11.0931 8.75 9.92157 9.92157ZM34 20.4167V34L20.4167 34V36L34 36V49.5833H36V36H49.5833V34H36V20.4167H34Z" fill="#222222"/>
</svg>
