<svg width="70" height="70" viewBox="0 0 70 70" fill="none" xmlns="http://www.w3.org/2000/svg">
<path fill-rule="evenodd" clip-rule="evenodd" d="M18.9584 46.6667H46.6667C52.1664 46.6667 54.9163 46.6667 56.6248 44.9581C58.3334 43.2496 58.3334 40.4997 58.3334 35V20.4167C58.3334 14.9169 58.3334 12.1671 56.6248 10.4585C54.9163 8.75 52.1664 8.75 46.6667 8.75H23.3334C17.8336 8.75 15.0838 8.75 13.3752 10.4585C11.6667 12.1671 11.6667 14.9169 11.6667 20.4167V53.9583C11.6667 49.9313 14.9313 46.6667 18.9584 46.6667ZM45.1642 24.7475C45.9453 23.9665 45.9453 22.7002 45.1642 21.9191C44.3832 21.1381 43.1169 21.1381 42.3358 21.9191L32.0834 32.1716L27.6642 27.7525C26.8832 26.9714 25.6169 26.9714 24.8358 27.7525C24.0548 28.5335 24.0548 29.7998 24.8358 30.5809L29.962 35.7071C31.1336 36.8787 33.0331 36.8787 34.2047 35.7071L45.1642 24.7475Z" fill="#222222"/>
<path d="M56.6248 44.9581L55.9177 44.251L56.6248 44.9581ZM56.6248 10.4585L55.9177 11.1657V11.1657L56.6248 10.4585ZM45.1642 21.9191L44.4571 22.6262L44.4571 22.6262L45.1642 21.9191ZM45.1642 24.7475L44.4571 24.0404L44.4571 24.0404L45.1642 24.7475ZM42.3358 21.9191L43.0429 22.6262L42.3358 21.9191ZM32.0834 32.1716L31.3762 32.8787L32.0834 33.5858L32.7905 32.8787L32.0834 32.1716ZM27.6642 27.7525L28.3713 27.0453L27.6642 27.7525ZM24.8358 27.7525L24.1287 27.0453L24.1287 27.0453L24.8358 27.7525ZM24.8358 30.5809L24.1287 31.288L24.1287 31.288L24.8358 30.5809ZM29.962 35.7071L30.6691 35V35L29.962 35.7071ZM34.2047 35.7071L33.4976 35L34.2047 35.7071ZM46.6667 45.6667H18.9584V47.6667H46.6667V45.6667ZM55.9177 44.251C55.2802 44.8885 54.4118 45.2634 52.9342 45.462C51.4278 45.6645 49.4448 45.6667 46.6667 45.6667V47.6667C49.3883 47.6667 51.5301 47.6688 53.2007 47.4442C54.9001 47.2157 56.2609 46.7363 57.3319 45.6652L55.9177 44.251ZM57.3334 35C57.3334 37.7781 57.3312 39.7611 57.1287 41.2675C56.93 42.7451 56.5552 43.6135 55.9177 44.251L57.3319 45.6652C58.403 44.5942 58.8824 43.2334 59.1109 41.534C59.3355 39.8634 59.3334 37.7216 59.3334 35H57.3334ZM57.3334 20.4167V35H59.3334V20.4167H57.3334ZM55.9177 11.1657C56.5552 11.8032 56.93 12.6716 57.1287 14.1492C57.3312 15.6555 57.3334 17.6385 57.3334 20.4167H59.3334C59.3334 17.6951 59.3355 15.5533 59.1109 13.8827C58.8824 12.1833 58.403 10.8225 57.3319 9.75144L55.9177 11.1657ZM46.6667 9.75C49.4448 9.75 51.4278 9.75212 52.9342 9.95465C54.4118 10.1533 55.2802 10.5281 55.9177 11.1657L57.3319 9.75144C56.2609 8.6804 54.9001 8.20096 53.2007 7.97249C51.5301 7.74788 49.3883 7.75 46.6667 7.75V9.75ZM23.3334 9.75H46.6667V7.75H23.3334V9.75ZM14.0823 11.1657C14.7198 10.5281 15.5882 10.1533 17.0658 9.95465C18.5722 9.75212 20.5552 9.75 23.3334 9.75V7.75C20.6118 7.75 18.47 7.74788 16.7994 7.97249C15.1 8.20096 13.7392 8.6804 12.6681 9.75144L14.0823 11.1657ZM12.6667 20.4167C12.6667 17.6385 12.6688 15.6555 12.8713 14.1492C13.07 12.6716 13.4448 11.8032 14.0823 11.1657L12.6681 9.75144C11.5971 10.8225 11.1176 12.1833 10.8892 13.8827C10.6646 15.5533 10.6667 17.6951 10.6667 20.4167H12.6667ZM12.6667 53.9583V20.4167H10.6667V53.9583H12.6667ZM18.9584 45.6667C14.379 45.6667 10.6667 49.379 10.6667 53.9583H12.6667C12.6667 50.4835 15.4836 47.6667 18.9584 47.6667V45.6667ZM44.4571 22.6262C44.8477 23.0168 44.8477 23.6499 44.4571 24.0404L45.8713 25.4547C47.0429 24.2831 47.0429 22.3836 45.8713 21.212L44.4571 22.6262ZM43.0429 22.6262C43.4334 22.2357 44.0666 22.2357 44.4571 22.6262L45.8713 21.212C44.6998 20.0404 42.8003 20.0404 41.6287 21.212L43.0429 22.6262ZM32.7905 32.8787L43.0429 22.6262L41.6287 21.212L31.3762 31.4645L32.7905 32.8787ZM26.9571 28.4596L31.3762 32.8787L32.7905 31.4645L28.3713 27.0453L26.9571 28.4596ZM25.5429 28.4596C25.9334 28.069 26.5666 28.069 26.9571 28.4596L28.3713 27.0453C27.1998 25.8738 25.3003 25.8738 24.1287 27.0453L25.5429 28.4596ZM25.5429 29.8738C25.1524 29.4832 25.1524 28.8501 25.5429 28.4596L24.1287 27.0453C22.9571 28.2169 22.9571 30.1164 24.1287 31.288L25.5429 29.8738ZM30.6691 35L25.5429 29.8738L24.1287 31.288L29.2549 36.4142L30.6691 35ZM33.4976 35C32.7165 35.781 31.4502 35.781 30.6691 35L29.2549 36.4142C30.817 37.9763 33.3497 37.9763 34.9118 36.4142L33.4976 35ZM44.4571 24.0404L33.4976 35L34.9118 36.4142L45.8713 25.4547L44.4571 24.0404ZM32.0834 60.25H18.9584V62.25H32.0834V60.25ZM10.6667 53.9583C10.6667 58.5377 14.379 62.25 18.9584 62.25V60.25C15.4836 60.25 12.6667 57.4331 12.6667 53.9583H10.6667Z" fill="#222222"/>
<path d="M58.3334 61.25H29.1667" stroke="#222222" stroke-width="2" stroke-linecap="round"/>
</svg>
